<svg xmlns="http://www.w3.org/2000/svg" >
  <symbol viewBox="0 0 32 33" id="facebook">
    <path d="M17.0681 27.1614V17.4302H20.3345L20.8235 13.6378H17.0681V11.2165C17.0681 10.1185 17.373 9.37019 18.9477 9.37019L20.9559 9.36926V5.9774C20.6084 5.93135 19.4164 5.82812 18.0296 5.82812C15.1342 5.82812 13.1519 7.59539 13.1519 10.8411V13.6379H9.87708V17.4303H13.1518V27.1615L17.0681 27.1614Z"></path>
  </symbol>
  <symbol viewBox="0 0 32 33" id="instagram">
    <path d="M12.6676 16.4946C12.6676 14.6537 14.1595 13.161 16.0004 13.161C17.8412 13.161 19.334 14.6537 19.334 16.4946C19.334 18.3355 17.8412 19.8282 16.0004 19.8282C14.1595 19.8282 12.6676 18.3355 12.6676 16.4946ZM10.8655 16.4946C10.8655 19.3306 13.1644 21.6295 16.0004 21.6295C18.8364 21.6295 21.1352 19.3306 21.1352 16.4946C21.1352 13.6586 18.8364 11.3597 16.0004 11.3597C13.1644 11.3597 10.8655 13.6586 10.8655 16.4946ZM20.1385 11.1561C20.1384 11.3935 20.2087 11.6255 20.3405 11.8229C20.4723 12.0203 20.6596 12.1742 20.8789 12.2651C21.0981 12.356 21.3394 12.3799 21.5722 12.3337C21.805 12.2875 22.0188 12.1733 22.1867 12.0055C22.3546 11.8377 22.469 11.624 22.5154 11.3912C22.5618 11.1584 22.5381 10.9172 22.4474 10.6979C22.3566 10.4785 22.2029 10.2911 22.0056 10.1591C21.8083 10.0272 21.5763 9.95672 21.339 9.95663H21.3385C21.0204 9.95678 20.7153 10.0832 20.4903 10.3081C20.2653 10.533 20.1388 10.838 20.1385 11.1561V11.1561ZM11.9604 24.6344C10.9854 24.59 10.4555 24.4276 10.1033 24.2904C9.63645 24.1086 9.30333 23.8921 8.95309 23.5424C8.60285 23.1926 8.38605 22.8598 8.20509 22.3929C8.06781 22.0409 7.90541 21.5109 7.86109 20.5359C7.81261 19.4818 7.80293 19.1652 7.80293 16.4947C7.80293 13.8242 7.81341 13.5085 7.86109 12.4535C7.90549 11.4785 8.06909 10.9495 8.20509 10.5965C8.38685 10.1296 8.60333 9.79647 8.95309 9.44623C9.30285 9.09599 9.63565 8.87919 10.1033 8.69823C10.4553 8.56095 10.9854 8.39855 11.9604 8.35423C13.0144 8.30575 13.3311 8.29607 16.0004 8.29607C18.6696 8.29607 18.9866 8.30655 20.0416 8.35423C21.0165 8.39863 21.5456 8.56223 21.8986 8.69823C22.3655 8.87919 22.6986 9.09647 23.0488 9.44623C23.3991 9.79599 23.6151 10.1296 23.7968 10.5965C23.9341 10.9485 24.0965 11.4785 24.1408 12.4535C24.1893 13.5085 24.199 13.8242 24.199 16.4947C24.199 19.1652 24.1893 19.4809 24.1408 20.5359C24.0964 21.5109 23.9332 22.0408 23.7968 22.3929C23.6151 22.8598 23.3986 23.1929 23.0488 23.5424C22.6991 23.8918 22.3655 24.1086 21.8986 24.2904C21.5466 24.4277 21.0165 24.5901 20.0416 24.6344C18.9875 24.6829 18.6708 24.6925 16.0004 24.6925C13.3299 24.6925 13.0141 24.6829 11.9604 24.6344V24.6344ZM11.8776 6.55519C10.813 6.60367 10.0856 6.77247 9.45029 7.01967C8.79237 7.27495 8.23541 7.61743 7.67885 8.17311C7.12229 8.72879 6.78069 9.28663 6.52541 9.94455C6.27821 10.5802 6.10941 11.3073 6.06093 12.3718C6.01165 13.4381 6.00037 13.7789 6.00037 16.4946C6.00037 19.2103 6.01165 19.5512 6.06093 20.6174C6.10941 21.6821 6.27821 22.409 6.52541 23.0447C6.78069 23.7022 7.12237 24.2607 7.67885 24.8161C8.23533 25.3716 8.79237 25.7136 9.45029 25.9696C10.0868 26.2168 10.813 26.3856 11.8776 26.4341C12.9444 26.4825 13.2847 26.4946 16.0004 26.4946C18.716 26.4946 19.0569 26.4833 20.1232 26.4341C21.1878 26.3856 21.9148 26.2168 22.5504 25.9696C23.208 25.7136 23.7653 25.3718 24.3219 24.8161C24.8784 24.2605 25.2193 23.7022 25.4753 23.0447C25.7225 22.409 25.8921 21.682 25.9398 20.6174C25.9883 19.5504 25.9996 19.2103 25.9996 16.4946C25.9996 13.7789 25.9883 13.4381 25.9398 12.3718C25.8913 11.3072 25.7225 10.5798 25.4753 9.94455C25.2193 9.28703 24.8776 8.72967 24.3219 8.17311C23.7662 7.61655 23.208 7.27495 22.5512 7.01967C21.9148 6.77247 21.1877 6.60287 20.124 6.55519C19.0577 6.50671 18.7168 6.49463 16.0012 6.49463C13.2855 6.49463 12.9444 6.50591 11.8776 6.55519Z" ></path>
  </symbol>
  <symbol fviewBox="0 0 32 33" id="twitter">
    <path d="M23.8415 13.0361C23.8415 13.2111 23.8415 13.3861 23.8415 13.5361C23.8415 18.7111 19.8915 24.6861 12.6915 24.6861C10.4665 24.6861 8.41647 24.0361 6.66647 22.9361C6.96647 22.9611 7.29147 22.9861 7.59147 22.9861C9.41647 22.9861 11.1165 22.3611 12.4665 21.3111C10.7415 21.2861 9.29147 20.1361 8.81647 18.5861C9.06647 18.6361 9.29147 18.6611 9.56647 18.6611C9.91647 18.6611 10.2665 18.6111 10.5915 18.5111C8.79147 18.1611 7.44147 16.5861 7.44147 14.6861C7.44147 14.6611 7.44147 14.6611 7.44147 14.6361C7.96647 14.9361 8.56647 15.1111 9.21647 15.1361C8.16647 14.4361 7.46647 13.2361 7.46647 11.8611C7.46647 11.1361 7.66647 10.4611 7.99147 9.88613C9.91647 12.2611 12.8165 13.8111 16.0665 13.9861C15.9915 13.7111 15.9665 13.3861 15.9665 13.0861C15.9665 10.9111 17.7165 9.16113 19.8915 9.16113C21.0165 9.16113 22.0415 9.63613 22.7415 10.3861C23.6415 10.2111 24.4665 9.88613 25.2415 9.43613C24.9415 10.3611 24.3165 11.1111 23.5165 11.6111C24.3165 11.5111 25.0665 11.3111 25.7665 10.9861C25.2665 11.7861 24.6165 12.4861 23.8415 13.0361Z"></path>
  </symbol>
</svg>
